<svg width="287" height="140" viewBox="0 0 287 140" fill="none" xmlns="http://www.w3.org/2000/svg"><g clip-path="url(#clip0_9_1511)"><path d="M89.8847 46.7497C88.7101 47.2297 87.5356 47.5647 86.3973 47.5987C85.2999 47.6304 84.1389 46.872 84.2682 45.6607C84.3475 44.9068 84.826 44.2638 85.2953 43.6684C87.3837 41.0217 89.8076 38.6921 91.964 36.1088C96.1406 31.1076 100.476 26.2128 105.337 21.8568C110.825 16.9417 116.729 12.4521 123.042 8.6463C126.234 6.66755 129.298 5.085 132.225 3.83979C132.561 3.69037 132.896 3.55 133.232 3.40963C133.264 3.39831 133.298 3.38246 133.329 3.36888C133.531 3.28511 133.735 3.19681 133.935 3.11531C134.266 2.99531 134.59 2.88211 134.917 2.76891C145.562 -0.921434 155.861 -0.778801 166.697 2.32064C178.277 5.63289 189.977 8.52631 201.759 11.0213C202.641 11.2069 203.027 12.2348 202.501 12.966C191.181 28.7123 171.135 37.9563 151.773 35.3345C146.143 34.5716 140.542 33.6003 134.837 33.5844C126.005 33.5618 117.364 35.7919 109.077 38.6785C104.941 40.1184 100.866 41.7304 96.7959 43.3469C94.6827 44.1868 92.2791 45.7694 89.8824 46.7474" fill="#CDCCCC"/><path d="M87.8575 39.7335C86.624 40.0368 85.4132 40.1953 84.284 40.0595C83.1956 39.9304 82.1571 39.009 82.4655 37.8294C82.6582 37.0959 83.2251 36.5299 83.7761 36.0114C86.2317 33.6998 88.9731 31.7528 91.4877 29.5159C96.3582 25.1849 101.367 20.9806 106.818 17.3876C112.97 13.3328 119.473 9.7624 126.28 6.92785C129.729 5.44039 132.991 4.3265 136.073 3.52504C136.427 3.42768 136.78 3.33712 137.132 3.24656C137.166 3.23751 137.2 3.22845 137.234 3.21939C137.445 3.16732 137.66 3.10846 137.869 3.05638C138.213 2.9862 138.554 2.92281 138.891 2.85941C149.966 0.776519 160.131 2.43151 170.391 7.09312C181.354 12.0717 192.501 16.6563 203.786 20.8561C204.632 21.1708 204.861 22.2439 204.233 22.8892C190.712 36.797 169.52 42.9914 150.757 37.5509C145.302 35.9684 139.905 34.1821 134.266 33.3263C125.534 32.0041 116.657 32.9391 108.033 34.5738C103.73 35.3888 99.4624 36.385 95.1973 37.3857C92.9843 37.9041 90.3744 39.1154 87.8575 39.7335Z" fill="#49AD3D"/><path d="M105.34 21.8591C110.827 16.9439 116.732 12.4544 123.044 8.65085C123.706 8.24107 124.362 7.85166 125.01 7.47583C118.663 10.2176 112.584 13.5864 106.816 17.3877C101.367 20.9807 96.356 25.185 91.4855 29.516C88.9709 31.7529 86.2318 33.6999 83.7739 36.0115C83.2229 36.53 82.656 37.096 82.4633 37.8295C82.1549 39.0091 83.1934 39.9282 84.2818 40.0596C85.411 40.1954 86.6218 40.0369 87.8553 39.7335C88.2431 39.6384 88.6331 39.5275 89.0253 39.4075C90.023 38.3253 91.0184 37.2409 91.964 36.1111C96.1406 31.1099 100.478 26.2151 105.34 21.8591Z" fill="#72B845"/><path d="M203.786 20.8539C201.798 20.1136 199.814 19.3574 197.834 18.5922C186.15 30.8518 168.702 37.628 151.775 35.3368C146.503 34.6237 141.254 33.7339 135.923 33.6116C140.968 34.5376 145.841 36.1224 150.757 37.5488C169.52 42.9892 190.712 36.7971 204.233 22.887C204.861 22.2418 204.632 21.1686 203.786 20.8539Z" fill="#72B845"/><path d="M34.6378 93.7076C34.6378 95.5166 34.2455 97.2327 33.461 98.8583C32.6765 100.486 31.579 101.921 30.1732 103.167C28.7651 104.412 27.0962 105.406 25.1643 106.148C23.2325 106.891 21.101 107.262 18.7678 107.262C16.6749 107.262 14.7952 107.142 13.1264 106.9C11.4575 106.66 9.88615 106.277 8.4191 105.754C6.94978 105.231 5.54169 104.559 4.19481 103.735C2.84567 102.913 1.44891 101.919 0 100.753L6.63914 94.0631C8.56876 95.6705 10.4598 96.8048 12.3101 97.4681C14.1603 98.1315 16.1716 98.4621 18.3438 98.4621C19.2281 98.4621 20.0648 98.333 20.8471 98.0704C21.6316 97.81 22.3164 97.4591 22.8991 97.0154C23.4819 96.5739 23.9444 96.0509 24.2868 95.4486C24.6292 94.8464 24.7993 94.1831 24.7993 93.4608C24.7993 92.6979 24.6587 92.0141 24.3775 91.4119C24.0964 90.8097 23.593 90.2278 22.8697 89.6641C22.1463 89.1026 21.1396 88.5298 19.8517 87.948C18.5637 87.3661 16.9153 86.7141 14.9041 85.9896C13.1332 85.3466 11.4348 84.6131 9.80452 83.789C8.17422 82.9649 6.74571 81.9732 5.51901 80.8073C4.29231 79.6435 3.30597 78.2761 2.56224 76.7094C1.81851 75.1427 1.44664 73.2952 1.44664 71.1671C1.44664 69.1181 1.85932 67.2322 2.68241 65.5025C3.50777 63.7773 4.6347 62.2989 6.06094 61.0741C7.48944 59.8492 9.1583 58.8961 11.0698 58.2124C12.979 57.5286 15.0424 57.1868 17.2554 57.1868C20.9559 57.1868 24.076 57.669 26.6087 58.6335C29.1437 59.5979 31.3953 61.0039 33.3658 62.8513L26.8491 69.4192C25.6428 68.2533 24.2936 67.3613 22.8062 66.7364C21.3165 66.116 19.566 65.8036 17.5547 65.8036C16.6296 65.8036 15.7748 65.9462 14.9902 66.2247C14.2057 66.5055 13.5322 66.879 12.9676 67.3386C12.4053 67.8005 11.9518 68.3438 11.6117 68.9664C11.2693 69.5913 11.0992 70.2433 11.0992 70.9248C11.0992 71.6878 11.2602 72.3806 11.5822 73.0032C11.9042 73.6258 12.4484 74.228 13.2125 74.8099C13.9767 75.3917 14.9925 75.9758 16.26 76.5577C17.5275 77.1395 19.1057 77.7735 20.999 78.4549C23.4116 79.2994 25.4841 80.2231 27.2141 81.2261C28.9442 82.2313 30.3523 83.3339 31.4384 84.5406C32.5245 85.7451 33.3295 87.1012 33.8533 88.6068C34.3748 90.1124 34.6378 91.8104 34.6378 93.6986" fill="#1C99CD"/><path d="M76.0961 88.9464C76.0961 91.5591 75.6131 93.9771 74.6471 96.2071C73.6812 98.4372 72.3547 100.364 70.6632 101.992C68.9739 103.62 66.9922 104.905 64.7202 105.847C62.4459 106.791 60.022 107.262 57.4484 107.262C54.8748 107.262 52.46 106.789 50.2084 105.847C47.9545 104.903 45.9841 103.608 44.2948 101.962C42.6056 100.316 41.2768 98.3783 40.3132 96.1483C39.3472 93.9182 38.8643 91.5184 38.8643 88.9487C38.8643 86.4175 39.3563 84.0381 40.3426 81.808C41.329 79.5779 42.6668 77.6309 44.3561 75.9646C46.0453 74.2983 48.0158 72.9919 50.2696 72.0478C52.5212 71.1037 54.9179 70.6328 57.4507 70.6328C60.0265 70.6328 62.4482 71.106 64.7224 72.0478C66.9944 72.9919 68.9762 74.2779 70.6655 75.9034C72.3547 77.5313 73.6835 79.467 74.6494 81.7174C75.6154 83.9679 76.0961 86.3768 76.0961 88.9464ZM67.4094 88.9464C67.4094 87.4612 67.1486 86.0757 66.6271 84.7897C66.1056 83.5037 65.3936 82.3785 64.4912 81.4163C63.5887 80.4518 62.5366 79.6979 61.3326 79.1546C60.1286 78.6135 58.8474 78.3418 57.4824 78.3418C56.1174 78.3418 54.834 78.6135 53.6323 79.1546C52.4282 79.6979 51.3761 80.4496 50.4737 81.4163C49.5712 82.3808 48.8593 83.5037 48.3377 84.7897C47.8162 86.0757 47.5555 87.4612 47.5555 88.9464C47.5555 90.4316 47.8162 91.8195 48.3377 93.1032C48.8593 94.3891 49.5712 95.5144 50.4737 96.4788C51.3761 97.4433 52.4282 98.1972 53.6323 98.7383C54.834 99.2794 56.1197 99.5511 57.4824 99.5511C58.8452 99.5511 60.1286 99.2794 61.3326 98.7383C62.5366 98.195 63.5887 97.4433 64.4912 96.4788C65.3936 95.5144 66.1056 94.3891 66.6271 93.1032C67.1486 91.8172 67.4094 90.4316 67.4094 88.9464Z" fill="#1C99CD"/><path d="M96.2518 106.18C95.567 106.502 94.7938 106.762 93.9299 106.964C93.0637 107.165 92.1703 107.265 91.2452 107.265C89.9573 107.265 88.7193 107.093 87.5334 106.753C86.3452 106.411 85.309 105.859 84.4247 105.096C83.5404 104.333 82.8352 103.339 82.3114 102.114C81.7876 100.889 81.5269 99.413 81.5269 97.6856V56.3514H90.3972V96.18C90.3972 97.6267 90.6874 98.6206 91.2702 99.1617C91.8529 99.7051 92.5467 99.9745 93.3517 99.9745C94.3584 99.9745 95.3221 99.6734 96.2495 99.0712L96.2518 106.18Z" fill="#1C99CD"/><path d="M136.502 88.8853C136.502 89.449 136.472 90.0309 136.413 90.6331C136.352 91.2353 136.282 91.8579 136.202 92.5009H108.322C108.643 93.5061 109.097 94.4593 109.68 95.3626C110.262 96.266 110.977 97.0493 111.822 97.7127C112.666 98.376 113.621 98.899 114.689 99.2794C115.754 99.662 116.931 99.8522 118.219 99.8522C119.788 99.8522 121.357 99.5805 122.926 99.0371C124.495 98.496 125.804 97.7625 126.849 96.8388L132.341 102.322C129.926 104.131 127.563 105.406 125.25 106.148C122.938 106.891 120.493 107.262 117.917 107.262C115.301 107.262 112.859 106.78 110.584 105.816C108.31 104.851 106.34 103.547 104.671 101.899C103.002 100.253 101.685 98.3149 100.719 96.0848C99.7527 93.8548 99.2698 91.4753 99.2698 88.9441C99.2698 86.413 99.7527 84.0335 100.719 81.8034C101.685 79.5734 103.013 77.6354 104.703 75.9894C106.392 74.3435 108.362 73.0372 110.616 72.0727C112.87 71.1082 115.283 70.626 117.856 70.626C120.31 70.626 122.663 71.0788 124.917 71.9821C127.169 72.8855 129.162 74.142 130.892 75.7472C132.622 77.3546 133.989 79.2723 134.996 81.5001C136 83.7301 136.504 86.1911 136.504 88.8807M127.393 85.5074C126.708 83.2977 125.493 81.5204 123.743 80.1756C121.992 78.8285 120.01 78.1561 117.797 78.1561C115.625 78.1561 113.673 78.8285 111.945 80.1756C110.215 81.5227 109.009 83.2999 108.324 85.5074H127.393Z" fill="#808181"/><path d="M173.674 106.359H164.985V85.5731C164.985 84.3279 164.793 83.2343 164.41 82.288C164.026 81.3462 163.512 80.5605 162.863 79.9379C162.217 79.3153 161.48 78.8535 160.65 78.5524C159.822 78.2512 158.963 78.0995 158.074 78.0995C156.741 78.0995 155.428 78.3327 154.136 78.7923C152.843 79.2542 151.671 79.9877 150.621 80.9907V106.357H141.932V71.5316H150.621L150.682 74.1217C151.204 73.5987 151.848 73.1187 152.614 72.675C153.378 72.2335 154.172 71.8622 154.997 71.5611C155.823 71.26 156.666 71.029 157.532 70.8683C158.396 70.7075 159.231 70.6283 160.036 70.6283C161.806 70.6283 163.505 70.909 165.135 71.4728C166.765 72.0365 168.212 72.8991 169.48 74.0651C170.747 75.231 171.763 76.7366 172.527 78.5841C173.291 80.4338 173.674 82.6208 173.674 85.152V106.359Z" fill="#808181"/><path d="M184.837 65.4482C182.338 65.4482 180.311 63.4242 180.311 60.9293C180.311 58.4343 182.338 56.4103 184.837 56.4103C187.336 56.4103 189.363 58.4343 189.363 60.9293C189.363 63.4242 187.336 65.4482 184.837 65.4482ZM189.243 106.361H180.431V71.475H189.243V106.361Z" fill="#808181"/><path d="M228.105 106.359H219.416V103.708C218.851 104.272 218.198 104.763 217.452 105.184C216.709 105.605 215.924 105.967 215.099 106.268C214.273 106.57 213.43 106.8 212.566 106.961C211.7 107.122 210.884 107.201 210.122 107.201C208.351 107.201 206.652 106.92 205.022 106.357C203.392 105.795 201.954 104.93 200.707 103.767C199.46 102.601 198.465 101.095 197.721 99.2477C196.975 97.4003 196.603 95.211 196.603 92.6798V71.5316H205.292V92.2587C205.292 93.5039 205.482 94.5997 205.866 95.5438C206.247 96.4879 206.75 97.2712 207.376 97.8938C207.999 98.5164 208.723 98.9783 209.548 99.2794C210.371 99.5805 211.226 99.7322 212.112 99.7322C214.929 99.7322 217.364 98.7677 219.416 96.8388V71.5316H228.105V106.359Z" fill="#808181"/><path d="M287 106.359H278.311V85.573C278.311 83.1233 277.717 81.2646 276.531 79.999C275.345 78.7357 273.885 78.1018 272.157 78.1018C270.828 78.1018 269.572 78.3123 268.386 78.7357C267.2 79.1568 266.042 79.8496 264.917 80.814C265.28 82.22 265.461 83.8071 265.461 85.5753V106.361H256.772V85.5753C256.772 83.1256 256.178 81.2668 254.992 80.0013C253.804 78.7379 252.367 78.104 250.677 78.104C249.351 78.104 248.183 78.3372 247.176 78.7968C246.17 79.2587 245.124 79.9922 244.038 80.9952V106.361H235.349V71.5361H244.038L244.05 74.1261C245.136 73.0824 246.415 72.2379 247.884 71.595C249.353 70.952 250.854 70.6305 252.385 70.6305C254.076 70.6305 255.777 71.0131 257.489 71.7761C259.201 72.5391 260.702 73.6439 261.99 75.0906C263.802 73.4832 265.634 72.3398 267.486 71.6561C269.339 70.9724 271.373 70.6305 273.588 70.6305C275.4 70.6305 277.123 70.9022 278.753 71.4433C280.384 71.9844 281.803 72.8492 283.014 74.0356C284.222 75.2219 285.188 76.7275 285.912 78.5545C286.637 80.3816 287 82.5822 287 85.1519V106.359Z" fill="#808181"/></g><defs><clipPath id="clip0_9_1511"><rect width="287" height="140" fill="white"/></clipPath></defs></svg>